<?xml version="1.0" encoding="UTF-8" standalone="no"?>
<!-- Created with Inkscape (http://www.inkscape.org/) -->

<svg
   version="1.1"
   id="svg9"
   width="1920"
   height="1080"
   viewBox="0 0 1920 1080"
   sodipodi:docname="smilebannerSVG.svg"
   inkscape:version="1.1 (c68e22c387, 2021-05-23)"
   xmlns:inkscape="http://www.inkscape.org/namespaces/inkscape"
   xmlns:sodipodi="http://sodipodi.sourceforge.net/DTD/sodipodi-0.dtd"
   xmlns="http://www.w3.org/2000/svg"
   xmlns:svg="http://www.w3.org/2000/svg">
  <defs
     id="defs13" />
  <sodipodi:namedview
     id="namedview11"
     pagecolor="#505050"
     bordercolor="#ffffff"
     borderopacity="1"
     inkscape:pageshadow="0"
     inkscape:pageopacity="0"
     inkscape:pagecheckerboard="1"
     showgrid="false"
     inkscape:zoom="0.5"
     inkscape:cx="804"
     inkscape:cy="683"
     inkscape:window-width="1920"
     inkscape:window-height="1017"
     inkscape:window-x="-8"
     inkscape:window-y="-8"
     inkscape:window-maximized="1"
     inkscape:current-layer="g15" />
  <g
     inkscape:groupmode="layer"
     id="layer2"
     inkscape:label="lback">
    <rect
       style="fill:#00ffff;stroke:#000000;stroke-width:0.962026;stroke-linecap:round;stroke-linejoin:round"
       id="rect972"
       width="138.89792"
       height="475.17575"
       x="958.5318"
       y="339.41125" />
    <rect
       style="opacity:1;fill:#00a1ff;fill-opacity:1;stroke:#000000;stroke-width:0.313066;stroke-linecap:round;stroke-linejoin:round"
       id="rect3688"
       width="527.23608"
       height="426.26218"
       x="431.29572"
       y="339.41125" />
    <rect
       style="fill:#00a1ff;fill-opacity:1;stroke:#000000;stroke-width:0.313066;stroke-linecap:round;stroke-linejoin:round"
       id="rect3688-0"
       width="527.23608"
       height="426.26218"
       x="1097.4297"
       y="339.41125" />
  </g>
  <g
     inkscape:groupmode="layer"
     inkscape:label="Image"
     id="g15">
    <path
       style="fill:#010101;stroke:none"
       d="M 1.890625,1.58704 V 1081.587 H 1921.8906 V 1.58704 H 1.890625 m 1021.999975,671 c 8.18,-21.581 22.13,-40.185 28.57,-63 12.63,-44.775 11.32,-99.12 -3.91,-143 -6.31,-18.155 -17.35,-33.612 -24.66,-51 5.71,0 15.66,-1.917 20.7,1.028 4.85,2.834 8.27,10.3 11.1,14.972 7.86,13.018 15.09,26.735 20.39,41 16.68,44.886 15,108.114 -3.77,152 -5.18,12.125 -11.55,23.962 -18.76,35 -2.59,3.948 -5.46,9.658 -9.75,11.972 -5.32,2.869 -13.96,0.319 -19.91,1.028 m -516.99998,-82 c 5.742,0 19.64301,-2.566 24.27201,1.028 3.385,2.627 4.37199,10.27 6.833,13.972 5.315,7.995 13.88199,13.51 22.89499,16.481 16.89,5.566 38.46001,5.646 54,-3.949 14.76701,-9.117 23.46101,-28.412 11.61001,-43.532 -28.101,-35.852 -101.463,-9.725 -113.324,-66 -1.36701,-6.485 -1.81001,-13.407 -1,-20 1.06999,-8.709 4.00199,-17.001 9.395,-24 22.52599,-29.236 71.096,-33.813 102.31899,-16.822 13.495,7.344 23.834,19.004 28.279,33.822 0.991,3.307 3.766,11.233 1.60401,14.397 -2.19501,3.211 -20.34901,2.82 -23.294,0.575 -2.545,-1.939 -2.71401,-7.152 -3.927,-9.972 -2.77601,-6.456 -6.98801,-12.056 -12.66201,-16.236 -21.888,-16.124 -73.81399,-11.825 -75.90599,22.236 -1.564,25.466 26.943,31.718 45.90599,36.374 28.46101,6.989 65.01701,11.847 73.101,45.626 1.574,6.575 1.281,14.276 0.81,21 -0.677,9.651 -4.536,19.375 -10.414,26.996 -34.222,44.368 -139.144,33.54 -140.497,-31.996 m 285,21 h 1 c 16.14301,-41.622 33.656,-82.927 51.15,-124 4.521,-10.615 8.961,-21.288 13.25,-32 1.483,-3.705 2.96901,-10.507 6.299,-12.972 5.575,-4.128 22.438,-1.028 29.301,-1.028 v 204 h -24 v -157 h -1 c -17.797,52.605 -48.74699,101.643 -64,155 h -23 l -19.576,-48 -44.424,-107 h -1 v 157 c -4.86,0 -19.74699,2.468 -22.97199,-1.603 -2.45101,-3.095 -1.02801,-10.666 -1.02801,-14.397 v -39 -149 c 6.99801,0 23.593,-3.085 29.351,1.028 3.386,2.418 4.95001,9.257 6.448,12.972 4.45001,11.035 9.112,21.981 13.598,33 16.625,40.839 36.476,81.241 50.603,123 m 359.99998,10 34,1 h 65 c 0,4.718 2.37,18.827 -1.6,21.972 -5.67,4.485 -25.24,1.028 -32.4,1.028 h -90 v -204 c 5.14,0 21.59,-2.665 24.97,1.603 2.21,2.782 1.03,9.069 1.03,12.397 v 31 91 c 0,13.588 2.85,30.968 -1,44 m 257,-180 v 23 h -101 v 65 h 96 v 23 h -96 v 70 h 101 v 23 h -126 v -204 h 126 m -434.99998,46.329 c 21.214,-3.822 28.24998,28.538 7,32.342 -20.91399,3.742 -27.783,-28.597 -7,-32.342 m 0,108 c 21.352,-3.847 28.21998,28.611 7,32.341 -20.873,3.668 -27.89099,-28.576 -7,-32.341 z"
       id="path930" />
  </g>
</svg>
